<svg width="566" height="564" viewBox="0 0 566 564" fill="none" xmlns="http://www.w3.org/2000/svg">
<rect x="18.5" y="18.5" width="480" height="276" fill="white" stroke="#2171AC" stroke-width="37"/>
<rect x="267" y="123" width="290" height="432" stroke="white" stroke-width="18"/>
<rect x="68" y="64" width="40" height="40" fill="#2171AC"/>
<rect x="137" y="64" width="40" height="40" fill="#2171AC"/>
<rect x="166" y="132" width="40" height="40" fill="#2171AC"/>
<rect x="206" y="64" width="40" height="40" fill="#2171AC"/>
<rect x="275" y="64" width="40" height="40" fill="#2171AC"/>
<rect x="344" y="64" width="40" height="40" fill="#2171AC"/>
<rect x="413" y="64" width="40" height="40" fill="#2171AC"/>
<rect x="68" y="132" width="69" height="40" fill="#2171AC"/>
<rect x="68" y="200" width="69" height="40" fill="#2171AC"/>
<rect x="171" y="200" width="69" height="40" fill="#2171AC"/>
<rect x="294.5" y="150.5" width="235" height="377" fill="white" stroke="#2171AC" stroke-width="37"/>
<circle cx="412" cy="273" r="68" stroke="#2171AC" stroke-width="30"/>
<circle cx="411.5" cy="272.5" r="20.5" fill="#2171AC"/>
<circle cx="411.5" cy="445.5" r="32" stroke="#2171AC" stroke-width="25"/>
</svg>
