<svg width="559" height="559" viewBox="0 0 559 559" fill="none" xmlns="http://www.w3.org/2000/svg">
<path d="M295 125L350 181.5L429.5 315.5L457.5 389.5L463.5 457.5L419 370.5L362 298L295 227L262 193.5L230.5 163.5L172.5 118.5L106.5 93.5V83L230.5 93.5L295 125Z" fill="#2171AC" stroke="#2171AC" stroke-width="16"/>
<path d="M252.5 125.056L197.5 181.632L118 315.81L90 389.909L84 458L128.5 370.884L185.5 298.287L252.5 227.192L285.5 193.648L317 163.607L375 118.547L441 93.514V83L317 93.514L252.5 125.056Z" fill="#2171AC" stroke="#2171AC" stroke-width="16"/>
<circle cx="279.5" cy="279.5" r="264.5" stroke="#2171AC" stroke-width="30"/>
</svg>
