<svg width="569" height="500" viewBox="0 0 569 500" fill="none" xmlns="http://www.w3.org/2000/svg">
<circle cx="236.5" cy="263.5" r="199.5" stroke="#2171AC" stroke-width="32"/>
<line x1="76.7782" y1="100.222" x2="125.778" y2="149.222" stroke="white" stroke-width="22"/>
<line x1="367.778" y1="383.222" x2="416.778" y2="432.222" stroke="white" stroke-width="22"/>
<line x1="242" y1="430" x2="242" y2="499.296" stroke="white" stroke-width="22"/>
<line x1="119.778" y1="388.778" x2="70.7782" y2="437.778" stroke="white" stroke-width="22"/>
<line x1="69.2969" y1="258" x2="0.000411026" y2="258" stroke="white" stroke-width="22"/>
<rect x="231" width="274" height="273" fill="white"/>
<path d="M269 301L326.735 201L211.265 201L269 301ZM259 12L259 211L279 211L279 12L259 12Z" fill="#2171AC"/>
<path d="M569 231L469 173.265L469 288.735L569 231ZM377 241L479 241L479 221L377 221L377 241Z" fill="#2171AC"/>
<line x1="266.5" y1="12" x2="266.5" y2="206" stroke="#2171AC" stroke-width="39"/>
<line x1="473" y1="231.5" x2="357" y2="231.5" stroke="#2171AC" stroke-width="39"/>
</svg>
