<svg width="557" height="547" viewBox="0 0 557 547" fill="none" xmlns="http://www.w3.org/2000/svg">
<circle cx="180.5" cy="180.5" r="161" stroke="#2171AC" stroke-width="39"/>
<line x1="253" y1="187" x2="150" y2="187" stroke="#2171AC" stroke-width="30"/>
<line x1="165" y1="81" x2="165" y2="202" stroke="#2171AC" stroke-width="30"/>
<rect x="91" y="210" width="270" height="198" fill="white"/>
<path d="M189.828 482.562H104.047L84.7812 536H56.9375L135.125 331.25H158.75L237.078 536H209.375L189.828 482.562ZM112.203 460.344H181.812L146.938 364.578L112.203 460.344Z" fill="#2171AC"/>
<path d="M189.828 482.562L196.402 480.158L194.721 475.562H189.828V482.562ZM104.047 482.562V475.562H99.1295L97.4618 480.188L104.047 482.562ZM84.7812 536V543H89.6986L91.3664 538.374L84.7812 536ZM56.9375 536L50.3981 533.503L46.7714 543H56.9375V536ZM135.125 331.25V324.25H130.305L128.586 328.753L135.125 331.25ZM158.75 331.25L165.288 328.749L163.567 324.25H158.75V331.25ZM237.078 536V543H247.251L243.616 533.499L237.078 536ZM209.375 536L202.801 538.405L204.482 543H209.375V536ZM112.203 460.344L105.623 457.957L102.218 467.344H112.203V460.344ZM181.812 460.344V467.344H191.811L188.39 457.948L181.812 460.344ZM146.938 364.578L153.515 362.183L146.924 344.085L140.357 362.191L146.938 364.578ZM189.828 475.562H104.047V489.562H189.828V475.562ZM97.4618 480.188L78.1961 533.626L91.3664 538.374L110.632 484.937L97.4618 480.188ZM84.7812 529H56.9375V543H84.7812V529ZM63.4769 538.497L141.664 333.747L128.586 328.753L50.3981 533.503L63.4769 538.497ZM135.125 338.25H158.75V324.25H135.125V338.25ZM152.212 333.751L230.54 538.501L243.616 533.499L165.288 328.749L152.212 333.751ZM237.078 529H209.375V543H237.078V529ZM215.949 533.595L196.402 480.158L183.254 484.967L202.801 538.405L215.949 533.595ZM112.203 467.344H181.812V453.344H112.203V467.344ZM188.39 457.948L153.515 362.183L140.36 366.973L175.235 462.739L188.39 457.948ZM140.357 362.191L105.623 457.957L118.784 462.731L153.518 366.965L140.357 362.191Z" fill="#2171AC"/>
<line x1="273" y1="264.5" x2="537" y2="264.5" stroke="#2171AC" stroke-width="31"/>
<line x1="255" y1="408.5" x2="557" y2="408.5" stroke="#2171AC" stroke-width="31"/>
<line x1="403.5" y1="372" x2="403.5" y2="516" stroke="#2171AC" stroke-width="31"/>
<line x1="464" y1="327.5" x2="320" y2="327.5" stroke="#2171AC" stroke-width="31"/>
<line x1="473.923" y1="323.907" x2="401.923" y2="383.907" stroke="#2171AC" stroke-width="31"/>
<line x1="523.5" y1="257" x2="523.5" y2="327" stroke="#2171AC" stroke-width="27"/>
<line x1="345.998" y1="502.512" x2="415.998" y2="502.5" stroke="#2171AC" stroke-width="27"/>
<line x1="286.5" y1="257" x2="286.5" y2="327" stroke="#2171AC" stroke-width="27"/>
<line x1="401.5" y1="210" x2="401.5" y2="280" stroke="#2171AC" stroke-width="27"/>
</svg>
