<svg width="564" height="564" viewBox="0 0 564 564" fill="none" xmlns="http://www.w3.org/2000/svg">
<circle cx="282" cy="282" r="263.5" stroke="#2171AC" stroke-width="37"/>
<line x1="31.0736" y1="192.5" x2="534.074" y2="194.5" stroke="#2171AC" stroke-width="37"/>
<line x1="31.0736" y1="369.5" x2="534.074" y2="371.5" stroke="#2171AC" stroke-width="37"/>
<path d="M404.5 282C404.5 357.939 389.566 425.877 366.168 474.215C342.216 523.7 312.294 547.5 284.5 547.5C256.706 547.5 226.784 523.7 202.832 474.215C179.434 425.877 164.5 357.939 164.5 282C164.5 206.061 179.434 138.123 202.832 89.7847C226.784 40.3005 256.706 16.5 284.5 16.5C312.294 16.5 342.216 40.3005 366.168 89.7847C389.566 138.123 404.5 206.061 404.5 282Z" stroke="#2171AC" stroke-width="33"/>
</svg>
